# xmcd
#
# Track frame offsets:
#	150
#	14698
#	28230
#	42162
#	55233
#	70012
#	85410
#	99273
#	116889
#	130013
#	140889
#	156585
#	168235
#	181641
#	194507
#
# Disc length: 2791 seconds
#
# Revision: 0
# Processed by: cddbd v1.5.1PL2 Copyright (c) Steve Scherf et al.
# Submitted via: dBpowerAMP V4.0
#
DISCID=d40ae50f
DTITLE=Marc Pircher - Ich war nie ein Casanova
DYEAR=2006
DGENRE=Folklore
TTITLE0=Ich war nie ein Casanova
TTITLE1=Vergiss die Tiroler nit
TTITLE2=Hey Du
TTITLE3=Hör mal was da hämmert
TTITLE4=Hand auf's Herz
TTITLE5=Auf jeden Topf passt a Deckel
TTITLE6=Es geht uns gut
TTITLE7=Schlager Medley
TTITLE8=Ohne Liebe ist man heimatlos
TTITLE9=A bisserl was geht immer
TTITLE10=Schönes Mädchen aus Spanien
TTITLE11=Nicht nur am Nil gibt es Kamele
TTITLE12=Meine Heimat
TTITLE13=Du bist das Allerletzte
TTITLE14=Dafür sag ich euch danke
EXTD=
EXTT0=
EXTT1=
EXTT2=
EXTT3=
EXTT4=
EXTT5=
EXTT6=
EXTT7=
EXTT8=
EXTT9=
EXTT10=
EXTT11=
EXTT12=
EXTT13=
EXTT14=
PLAYORDER=
